<svg width="24" height="24" xmlns="http://www.w3.org/2000/svg"><g fill="none" fill-rule="evenodd"><path d="M0 0h24v24H0z"/><path d="M23.06 17.798c-1.281.67-7.916 3.408-9.329 4.147-1.412.74-2.197.732-3.313.197-1.115-.536-8.176-3.398-9.448-4.008-.636-.305-.97-.562-.97-.805v-2.435s9.192-2.008 10.676-2.543c1.484-.534 1.999-.553 3.262-.09 1.263.465 8.814 1.833 10.062 2.291v2.4c0 .241-.288.505-.94.846" fill="#912626" fill-rule="nonzero"/><path d="M23.06 15.327c-1.281.668-7.916 3.4-9.329 4.137-1.412.737-2.197.73-3.313.196S2.242 16.27.97 15.662c-1.272-.608-1.298-1.027-.049-1.517 1.25-.49 8.271-3.248 9.755-3.781 1.484-.533 1.999-.552 3.262-.089 1.263.463 7.858 3.091 9.106 3.549 1.248.458 1.296.835.015 1.503" fill="#C6302B" fill-rule="nonzero"/><path d="M23.06 13.826c-1.281.67-7.916 3.408-9.329 4.147-1.412.739-2.197.732-3.313.196-1.116-.535-8.176-3.397-9.448-4.007-.636-.305-.97-.562-.97-.806v-2.435S9.192 8.913 10.676 8.38c1.484-.534 1.999-.554 3.262-.09 1.263.465 8.814 1.832 10.062 2.29v2.401c0 .24-.288.505-.94.846" fill="#912626" fill-rule="nonzero"/><path d="M23.06 11.52c-1.281.669-7.916 3.4-9.329 4.137-1.412.737-2.197.73-3.313.196S2.242 12.463.97 11.855c-1.272-.608-1.298-1.027-.049-1.517 1.25-.49 8.271-3.248 9.755-3.78 1.484-.534 1.999-.553 3.262-.09 1.263.463 7.858 3.091 9.106 3.549 1.248.458 1.296.835.015 1.503" fill="#C6302B" fill-rule="nonzero"/><path d="M23.06 9.853c-1.281.67-7.916 3.408-9.329 4.148-1.412.739-2.197.731-3.313.196-1.116-.535-8.176-3.398-9.448-4.008C.334 9.884 0 9.627 0 9.384V6.949S9.192 4.94 10.676 4.407c1.484-.535 1.999-.554 3.262-.09C15.2 4.781 22.752 6.148 24 6.607v2.4c0 .241-.288.505-.94.846" fill="#912626" fill-rule="nonzero"/><path d="M23.06 7.382c-1.282.669-7.916 3.4-9.329 4.137-1.412.737-2.197.73-3.313.196S2.242 8.325.97 7.717C-.302 7.11-.328 6.69.921 6.2c1.25-.49 8.271-3.248 9.755-3.78 1.484-.534 1.999-.553 3.262-.09 1.263.463 7.858 3.091 9.106 3.55 1.248.457 1.296.834.015 1.502" fill="#C6302B" fill-rule="nonzero"/><path d="m14.897 5.071-2.061.213-.462 1.107-.745-1.235-2.38-.213 1.776-.639-.533-.98 1.663.648 1.567-.511-.424 1.013 1.599.597m-2.646 5.37-3.846-1.59 5.511-.844-1.665 2.434M6.918 5.686c1.627 0 2.946.51 2.946 1.139S8.545 7.963 6.918 7.963c-1.627 0-2.946-.51-2.946-1.138 0-.629 1.32-1.139 2.946-1.139" fill="#FFF" fill-rule="nonzero"/><path fill="#621B1C" fill-rule="nonzero" d="m17.38 5.31 3.31 1.325-3.308 1.324-.003-2.649"/><path fill="#9A2928" fill-rule="nonzero" d="m13.738 6.703 3.638-1.393.003 2.514-.356.135-3.285-1.256"/></g></svg>