<svg width="534" height="100" viewBox="0 0 534 100" fill="none" xmlns="http://www.w3.org/2000/svg">
<path fill-rule="evenodd" clip-rule="evenodd" d="M384.496 26.3069C383.498 26.3069 382.685 27.1187 382.685 28.1166V82.5664C382.685 83.5643 383.498 84.3761 384.496 84.3761H391.749C392.747 84.3761 393.56 83.5643 393.56 82.5664V28.1166C393.56 27.1187 392.747 26.3069 391.749 26.3069H384.496ZM339.503 36.3112H327.424C327.281 36.3112 327.165 36.427 327.165 36.5697V74.1143C327.165 74.257 327.281 74.3728 327.424 74.3728H339.503C350.558 74.3728 359.552 65.836 359.552 55.3415C359.552 44.848 350.558 36.3112 339.503 36.3112ZM353.472 81.6294C353.109 81.7949 352.772 81.9459 352.437 82.0834C346.825 84.373 341.693 84.373 339.503 84.373H318.101C317.103 84.373 316.291 83.5612 316.291 82.5633V28.1197C316.291 27.1218 317.103 26.31 318.101 26.31H339.503C341.694 26.31 346.827 26.31 352.441 28.6027C352.767 28.7361 353.095 28.8819 353.424 29.0318L353.479 29.0556C363.863 33.8933 370.573 44.211 370.573 55.3415C370.573 66.474 363.86 76.7927 353.472 81.6294ZM275.564 25.9894C275.213 26.3689 275.076 26.8746 275.187 27.3772L276.694 34.1674C276.93 35.2315 277.72 36.093 278.758 36.4166C287.245 39.0609 292.948 46.666 292.948 55.3415C292.948 64.0169 287.245 71.622 278.758 74.2674C277.721 74.589 276.931 75.4514 276.694 76.5166L275.187 83.3058C275.076 83.8094 275.213 84.3151 275.564 84.6936C275.863 85.0163 276.282 85.1972 276.715 85.1972C276.788 85.1972 276.861 85.1921 276.934 85.1828C291.923 83.0834 303.224 70.2549 303.224 55.3415C303.224 40.4281 291.923 27.5995 276.934 25.5013C276.425 25.432 275.912 25.6119 275.564 25.9894ZM452.75 26.3131C451.751 26.3131 450.939 27.1228 450.939 28.1228L450.94 66.6788C450.94 66.9208 450.638 67.0304 450.483 66.8443L417.568 27.5168C416.929 26.7536 415.984 26.3131 414.989 26.3131H409.013C408.014 26.3131 407.202 27.1228 407.202 28.1228V82.5602C407.202 83.5602 408.014 84.3699 409.013 84.3699H416.266C417.265 84.3699 418.077 83.5602 418.077 82.5602V44.0052C418.077 43.7642 418.379 43.6546 418.534 43.8397L451.446 83.1651C452.088 83.9314 453.027 84.3699 454.026 84.3699H460.003C461.004 84.3699 461.814 83.5602 461.814 82.5602V28.1228C461.814 27.1228 461.004 26.3131 460.003 26.3131H452.75ZM531.947 50.3538H506.058C505.058 50.3538 504.247 51.1635 504.247 52.1636V58.8307C504.247 59.8307 505.058 60.6404 506.058 60.6404L522.701 60.6394C522.866 60.6394 522.994 60.7945 522.96 60.9569C521.171 69.5889 511.757 74.468 505.871 75.0554C505.2 75.1205 504.515 75.1547 503.812 75.1567C492.618 75.1567 483.512 66.2683 483.512 55.3415C483.512 44.4157 492.618 35.5273 503.812 35.5273C509.668 35.5273 515.241 38.0154 519.102 42.3537C519.623 42.938 520.31 43.3134 521.039 43.4106L529.739 44.5554C530.31 44.6288 530.871 44.3858 531.208 43.9163C531.549 43.4447 531.599 42.8542 531.346 42.3361C526.286 31.9802 515.479 25.2893 503.812 25.2893C486.97 25.2893 473.268 38.7714 473.268 55.3425C473.268 71.9147 486.97 85.3958 503.812 85.3958C504.264 85.3958 504.699 85.3792 505.135 85.3627L505.376 85.3555C517.928 84.7308 528.663 76.7617 532.728 65.0387C533.936 60.8018 534.299 56.1574 533.751 51.9598C533.632 51.0457 532.869 50.3538 531.947 50.3538ZM40.5464 53.1636V57.4294C40.5464 59.7873 42.4577 61.6973 44.8149 61.6973C47.1721 61.6973 49.0834 59.7873 49.0834 57.4315V53.1656C49.0834 50.8078 47.1721 48.8977 44.8149 48.8977C42.4577 48.8977 40.5464 50.8078 40.5464 53.1636ZM85.697 33.0278C82.5275 33.0278 79.4769 33.5086 76.621 34.4001C74.2782 35.1291 72.0658 36.1343 70.0294 37.3743C69.6155 37.6369 69.0091 37.6576 68.5786 37.4156C66.5132 36.155 64.2853 35.1353 61.9126 34.398C59.0587 33.5086 56.0112 33.0278 52.8438 33.0278C39.2271 32.8902 26.4724 42.5367 24.169 56.0768C21.998 67.9208 28.5916 79.7938 39.2985 85.0328C57.3792 94.2905 80.7953 94.3525 98.9308 85.1859C109.816 80.0203 116.57 68.0304 114.37 56.0602C112.058 42.5305 99.3054 32.8881 85.697 33.0278ZM137.193 62.3778C135.698 66.4575 132.02 69.4906 127.577 70.0677C125.831 70.2838 124.059 70.4007 122.26 70.4172C115.078 90.2035 92.6994 100.181 69.2678 99.9969C45.8466 100.186 23.4415 90.1984 16.2746 70.4172C14.4793 70.3997 12.7129 70.2859 10.9734 70.0698C6.43076 69.4875 2.68693 66.3355 1.25065 62.1193C-0.399825 57.3126 -0.418451 51.541 1.20512 46.7291H1.20719C2.47997 42.6474 5.98787 39.5946 10.2563 38.942C12.6715 38.5635 15.1581 38.365 17.6757 38.3784C23.901 25.2365 35.3446 16.0099 49.9371 11.2352C56.7439 9.02733 62.9494 5.33337 68.1326 0.461516C68.7018 -0.154834 69.8359 -0.154834 70.404 0.463584C72.9568 2.86176 75.7693 4.98693 78.7971 6.79151C81.8611 8.61678 85.1455 10.1153 88.5975 11.2352C103.189 16.0088 114.635 25.2375 120.859 38.3784C123.376 38.365 125.863 38.5635 128.278 38.942C132.544 39.5904 136.061 42.6577 137.327 46.7291C138.977 51.6299 138.936 57.5049 137.193 62.3778ZM218.2 44.7001C218.66 45.4054 219.433 45.876 220.319 45.9928L228.082 47.0146C228.635 47.0911 229.162 46.8718 229.507 46.4375C229.849 46.0063 229.938 45.4427 229.746 44.9308C225.335 33.1808 213.82 25.2882 201.093 25.2882C184.251 25.2882 170.547 38.7704 170.547 55.3415C170.547 71.9136 184.251 85.3958 201.093 85.3958C213.82 85.3958 225.335 77.5022 229.746 65.7532C229.938 65.2403 229.849 64.6777 229.507 64.2465C229.162 63.8132 228.635 63.5971 228.082 63.6684L220.319 64.6901C219.433 64.807 218.66 65.2786 218.2 65.9828C214.435 71.7275 208.04 75.1567 201.093 75.1567C189.898 75.1567 180.791 66.2683 180.791 55.3415C180.791 44.4157 189.898 35.5273 201.093 35.5273C208.041 35.5273 214.436 38.9565 218.2 44.7001ZM266.254 76.5166C266.017 75.4514 265.226 74.589 264.189 74.2674C255.701 71.622 249.999 64.0169 249.999 55.3415C249.999 46.666 255.701 39.0609 264.189 36.4166C265.226 36.093 266.018 35.2315 266.254 34.1674L267.759 27.3782C267.871 26.8746 267.734 26.3689 267.384 25.9894C267.035 25.6119 266.519 25.433 266.013 25.5013C251.025 27.5995 239.722 40.4281 239.722 55.3415C239.722 70.2549 251.025 83.0834 266.013 85.1828C266.086 85.1921 266.159 85.1972 266.231 85.1972C266.666 85.1972 267.085 85.0163 267.383 84.6936C267.734 84.3151 267.871 83.8094 267.759 83.3058L266.254 76.5166ZM97.9892 57.4294C97.9892 59.7873 96.0779 61.6973 93.7207 61.6973C91.3635 61.6973 89.4522 59.7873 89.4522 57.4315V53.1656C89.4522 50.8078 91.3635 48.8977 93.7207 48.8977C96.0779 48.8977 97.9892 50.8078 97.9892 53.1636V57.4294Z" fill="#32363F"/>
</svg>
