<?xml version="1.0" standalone="no"?><!DOCTYPE svg PUBLIC "-//W3C//DTD SVG 1.1//EN" "http://www.w3.org/Graphics/SVG/1.1/DTD/svg11.dtd"><svg t="1602846724522" class="icon" viewBox="0 0 1024 1024" version="1.1" xmlns="http://www.w3.org/2000/svg" p-id="13168" xmlns:xlink="http://www.w3.org/1999/xlink" width="18" height="18"><defs><style type="text/css"></style></defs><path d="M114.7 64.7c40-4.1 109.4 17.2 137.7 42.3 13.1 11.5 25.8 23.6 38.1 36.1 112.4-22.3 213 33.9 299.6 167.2 80.4 123.8 135.5 226.6 164 306 40.3 21 79.2 44.7 116.5 71 62.4 43.8 79.4 66.5 86.6 79.7 8.1 14.8 3 33.5-11.4 41.8-4.4 2.6-9.4 3.9-14.5 3.9H829c15.2 18 30.7 35.6 46.6 53 12.1 11.5 12.8 31 1.6 43.4-11.2 12.4-30.1 13.2-42.2 1.6-1-0.9-1.9-1.9-2.7-3-31.2-34.5-61.5-69.8-91.1-105.8-10.6-13-9-32.3 3.5-43.3 5.3-4.6 12.1-7.2 19.1-7.3h92c-43.7-32.6-90-61.2-138.5-85.5-7.2-3.5-12.7-9.9-15.3-17.7-25.3-75.9-79.7-178.1-161.4-303.9-76.4-117.8-159-162.8-252.3-138-10.5 2.8-21.6-0.5-29-8.6-14.5-15.6-29.7-30.4-45.6-44.4-15.5-13.7-61-26.8-84.8-28 6.8 15.9 25.1 49.6 75.2 116.8 1.9 2.5 3.4 5.4 4.4 8.5 17.7 52.4 26.3 91.7 26.3 120 0 7.8 4.2 31.2 43 80.2 6.2 7.8 8.3 18.3 5.5 28l-34.1 120c-19.5 68.6 19.3 160.1 43.9 189.3 5.7-15.9 14.3-53.7 17.9-140.8 0.8-16.9 14.7-30 31.2-29.3 10.5 0.5 20.1 6.7 25 16.3 14.5 28.5 35.6 79.3 64.6 155.1 34.4 89.8 58.5 108.7 67.3 112.6 14.6 7.9 20.2 26.5 12.5 41.5-6.9 13.4-22.2 19.7-36.2 14.7-35.4-15.8-66.8-62.2-99-146.3-5.9-15.6-11.6-30.1-16.9-43.7-10.5 57.5-26.6 77.7-46.6 85.8-10 4.1-30.2 7.4-54.2-15.2-44.9-42.3-93.2-163.4-66.6-257.2l29.8-104.9c-31.7-42.5-46.6-76.5-46.6-106.1 0-14-3.8-41.9-21.4-95.2C61 150.1 54.2 111.7 74.4 84.9c8.7-11.4 22.3-18.3 40.3-20.2z m208.2 219.2c11.6-2.7 47.9-3.2 59.1 14.3 21.6 24.9 11 62.8-2.5 72.3l-1.9 1.9c-7.7-15.6-19.7-28-27.4-43.6-9.7-14.6-18.8-29.5-27.3-44.9z" fill="#4A94C6" p-id="13169"></path></svg>